<svg xmlns="http://www.w3.org/2000/svg" viewBox="0 0 100 100" width="100" height="100">
 <defs>
  <clipPath id="bodyClipMid"><ellipse cx="50" cy="58" rx="22" ry="26"/></clipPath>
 </defs>

 <!-- Wings (behind body) -->
 <path d="M48 36 C34 16 12 18 9 34 C7 48 24 58 48 48 Z"
  fill="#FEF3C7" stroke="#E7E5E4" stroke-width="1.5"/>
 <path d="M52 36 C66 16 88 18 91 34 C93 48 76 58 52 48 Z"
  fill="#FEF3C7" stroke="#E7E5E4" stroke-width="1.5"/>

 <!-- Stinger -->
 <path d="M44 82 L50 91 L56 82 Z" fill="#D97706"/>

 <!-- Body -->
 <ellipse cx="50" cy="58" rx="22" ry="26" fill="#F59E0B" stroke="#D97706" stroke-width="1.6"/>
 <g clip-path="url(#bodyClipMid)">
  <rect x="22" y="52" width="56" height="5" fill="#D97706" opacity="0.85"/>
  <rect x="22" y="64" width="56" height="5" fill="#D97706" opacity="0.85"/>
 </g>

 <!-- Head -->
 <circle cx="50" cy="30" r="12" fill="#F59E0B" stroke="#D97706" stroke-width="1.6"/>
 <circle cx="45" cy="30" r="3" fill="#1C1917"/>
 <circle cx="55" cy="30" r="3" fill="#1C1917"/>
 <circle cx="44" cy="29" r="1" fill="#FFFFFF" opacity="0.85"/>
 <circle cx="54" cy="29" r="1" fill="#FFFFFF" opacity="0.85"/>

 <!-- Antennae (muted, not bright amber) -->
 <g fill="none" stroke="#92400E" stroke-width="2" stroke-linecap="round">
  <path d="M45 20 Q38 10 33 7"/>
  <path d="M55 20 Q62 10 67 7"/>
 </g>
 <circle cx="33" cy="7" r="2" fill="#92400E"/>
 <circle cx="67" cy="7" r="2" fill="#92400E"/>
</svg>
